<?xml version="1.0" encoding="utf-8"?>
<svg viewBox="114.79 8.9 331.79 70.37" xmlns="http://www.w3.org/2000/svg">
  <defs>
    <style>.cls-1{fill:#d1bb6c;}</style>
  </defs>
  <polygon class="cls-1" points="121.32 29.4 138.31 29.4 138.31 24.03 121.32 24.03 121.32 14.88 140.47 14.88 140.47 9.4 114.79 9.4 114.79 44.58 141.18 44.58 141.18 39.11 121.32 39.11 121.32 29.4" transform="matrix(1, 0, 0, 1, 0, 3.552713678800501e-15)"/>
  <path class="cls-1" d="m168.42,9.4h-6.43l-15.83,35.18h6.74l3.47-8.14h17.59l3.52,8.14h6.84l-15.88-35.18h-.02Zm-9.85,21.91l6.58-15.38,6.64,15.38h-13.22Z" transform="matrix(1, 0, 0, 1, 0, 3.552713678800501e-15)"/>
  <path class="cls-1" d="m221.2,29.25V9.4h-6.43v19.6c0,6.9-2.97,10.35-8.9,10.35s-8.95-3.45-8.95-10.35V9.4h-6.53v19.85c0,5.09,1.36,9.01,4.07,11.74s6.5,4.1,11.36,4.1,8.64-1.36,11.33-4.1c2.7-2.73,4.05-6.64,4.05-11.74h0Z" transform="matrix(1, 0, 0, 1, 0, 3.552713678800501e-15)"/>
  <polygon class="cls-1" points="295.29 9.4 288.75 9.4 288.75 44.58 313.68 44.58 313.68 39.06 295.29 39.06 295.29 9.4" transform="matrix(1, 0, 0, 1, 0, 3.552713678800501e-15)"/>
  <path class="cls-1" d="m332.63,9.4l-15.83,35.18h6.73l3.47-8.14h17.59l3.52,8.14h6.84l-15.88-35.18h-6.44Zm-3.42,21.91l6.58-15.38,6.64,15.38h-13.22Z" transform="matrix(1, 0, 0, 1, 0, 3.552713678800501e-15)"/>
  <rect class="cls-1" x="362.09" y="9.4" width="6.53" height="35.18" transform="matrix(1, 0, 0, 1, 0, 3.552713678800501e-15)"/>
  <path class="cls-1" d="m408.3,28.75c1.29-1.91,1.94-4.19,1.94-6.84s-.6-4.81-1.81-6.68c-1.21-1.88-2.94-3.32-5.2-4.32-2.26-1.01-4.92-1.51-7.97-1.51h-14.48v35.18h6.53v-10.25h7.94c.6,0,1.06-.02,1.36-.05l7.19,10.3h7.04l-8.09-11.56c2.41-.94,4.26-2.36,5.55-4.27h0Zm-6.86-1.63c-1.47,1.22-3.64,1.83-6.48,1.83h-7.64v-14.02h7.64c2.85,0,5.01.6,6.48,1.81s2.21,2.93,2.21,5.18-.74,3.98-2.21,5.2Z" transform="matrix(1, 0, 0, 1, 0, 3.552713678800501e-15)"/>
  <polygon class="cls-1" points="426.72 39.11 426.72 29.4 443.71 29.4 443.71 24.03 426.72 24.03 426.72 14.88 445.88 14.88 445.88 9.4 420.19 9.4 420.19 44.58 446.58 44.58 446.58 39.11 426.72 39.11" transform="matrix(1, 0, 0, 1, 0, 3.552713678800501e-15)"/>
  <path class="cls-1" d="m259.7,16.21c1.91-1.05,4.07-1.58,6.48-1.58,3.72,0,6.85,1.37,9.4,4.12l4.22-3.97c-1.64-1.91-3.65-3.37-6.03-4.37s-5.01-1.51-7.89-1.51c-3.55,0-6.76.78-9.63,2.34-2.86,1.56-5.12,3.71-6.76,6.46-1.64,2.75-2.46,5.85-2.46,9.3s.81,6.55,2.44,9.3,3.87,4.9,6.74,6.46c2.86,1.56,6.07,2.34,9.63,2.34,2.88,0,5.52-.5,7.92-1.51,2.39-1.01,4.41-2.46,6.06-4.37l-4.22-4.02c-2.55,2.78-5.68,4.17-9.4,4.17-2.41,0-4.57-.53-6.48-1.58-1.91-1.06-3.4-2.52-4.47-4.4-1.07-1.88-1.61-4-1.61-6.38s.54-4.51,1.61-6.38c1.07-1.88,2.56-3.34,4.47-4.4l-.02-.02Z" transform="matrix(1, 0, 0, 1, 0, 3.552713678800501e-15)"/>
  <path class="cls-1" d="m133.04,62.01c-.96-.91-2.08-1.61-3.36-2.11-1.29-.5-2.7-.75-4.24-.75s-2.93.25-4.23.75-2.43,1.21-3.39,2.11c-.96.91-1.71,1.97-2.24,3.2-.53,1.22-.79,2.56-.79,4s.26,2.78.79,4,1.27,2.29,2.22,3.2c.95.91,2.09,1.61,3.39,2.11s2.73.75,4.27.75,2.92-.25,4.21-.75c1.29-.5,2.41-1.2,3.36-2.1s1.7-1.96,2.24-3.2c.54-1.23.81-2.57.81-4.02s-.27-2.8-.81-4.02c-.54-1.21-1.28-2.27-2.24-3.18h0Zm-1.97,9.73c-.31.76-.74,1.42-1.29,1.97-.56.56-1.2.98-1.93,1.28-.73.3-1.53.44-2.4.44s-1.68-.15-2.42-.44c-.74-.3-1.39-.72-1.93-1.28-.55-.56-.97-1.22-1.28-1.99s-.46-1.61-.46-2.52.15-1.77.46-2.53.74-1.42,1.29-1.97,1.2-.98,1.93-1.28,1.53-.45,2.41-.45,1.68.15,2.42.45,1.39.72,1.93,1.28.97,1.21,1.28,1.97.46,1.6.46,2.53-.15,1.77-.46,2.53h-.01Z" transform="matrix(1, 0, 0, 1, 0, 3.552713678800501e-15)"/>
  <polygon class="cls-1" points="168.17 71.29 158.5 59.48 154.77 59.48 154.77 78.94 159.22 78.94 159.22 67.13 168.92 78.94 172.62 78.94 172.62 59.48 168.17 59.48 168.17 71.29" transform="matrix(1, 0, 0, 1, 0, 3.552713678800501e-15)"/>
  <polygon class="cls-1" points="197 75.33 197 70.82 206.04 70.82 206.04 67.32 197 67.32 197 63.09 207.24 63.09 207.24 59.48 192.53 59.48 192.53 78.94 207.6 78.94 207.6 75.33 197 75.33" transform="matrix(1, 0, 0, 1, 0, 3.552713678800501e-15)"/>
</svg>