<?xml version="1.0" encoding="utf-8"?>
<svg viewBox="0.0007 -0.005 88.2087 88.1784" xmlns="http://www.w3.org/2000/svg">
  <defs>
    <style>.cls-1{fill:#d1bb6c;}</style>
  </defs>
  <path class="cls-1" d="m85.52,28.8c3,8.13,3.52,16.99,1.41,25.66-2.79,11.51-9.83,21.2-19.84,27.3-10,6.1-21.85,7.93-33.36,5.14-11.51-2.79-21.2-9.83-27.3-19.84C.3,57.01-1.56,44.68,1.34,33.25l9.1,2.31c-2.28,9-.82,18.7,4.02,26.63,4.8,7.86,12.43,13.4,21.5,15.6,9.07,2.2,18.39.77,26.25-4.03,7.86-4.8,13.4-12.43,15.6-21.5s.76-18.39-4.03-26.25c-8.6-14.1-26.14-20.2-41.69-14.5l-3.23-8.82c19.75-7.24,42.01.51,52.94,18.42,1.5,2.46,2.75,5.04,3.72,7.69Z" transform="matrix(1, 0, 0, 1, 0, 3.552713678800501e-15)"/>
  <circle class="cls-1" cx="15.11" cy="18.47" r="9.1" transform="matrix(1, 0, 0, 1, 0, 3.552713678800501e-15)"/>
</svg>